<svg width="69" height="69" viewBox="0 0 69 69" fill="none" xmlns="http://www.w3.org/2000/svg">
<path d="M34.6944 67.9629C53.3032 67.9629 68.3887 52.9727 68.3887 34.4814C68.3887 15.9902 53.3032 1 34.6944 1C16.0855 1 1 15.9902 1 34.4814C1 52.9727 16.0855 67.9629 34.6944 67.9629Z" fill="white" stroke="#653937" stroke-miterlimit="10"/>
<path d="M23.7329 16.1743C24.9045 16.4634 25.6122 17.6433 25.3213 18.8075L23.0724 27.6838L24.1811 26.8087C24.189 26.8009 24.1968 26.7931 24.2047 26.7852L36.4322 17.1041C37.3758 16.354 38.7518 16.5103 39.4988 17.4479C40.2537 18.3856 40.0965 19.753 39.1529 20.4953L31.9815 26.1758L32.0287 26.2383L43.3362 17.2839C44.2798 16.5337 45.6558 16.69 46.4029 17.6277C47.1577 18.5653 47.0005 19.9327 46.0569 20.675L34.7573 29.6294L34.8044 29.6919L42.196 23.8395C43.1396 23.0894 44.5157 23.2457 45.2627 24.1833C46.0176 25.1209 45.8603 26.4883 44.9167 27.2306L37.5252 33.083L37.5723 33.1455L41.6377 29.9263C42.5813 29.1762 43.9574 29.3325 44.7044 30.2701C45.4592 31.2078 45.302 32.5752 44.3584 33.3174L32.1309 42.9985C32.1231 43.0064 32.1073 43.0142 32.0995 43.0142L27.3264 46.796C25.8403 47.968 23.8351 48.054 22.2939 47.1554L19.0227 49.7495L11.5526 40.4357L14.8237 37.8415C14.289 36.146 14.8159 34.2238 16.2942 33.044L17.4265 32.1454L21.0751 17.7449C21.3739 16.5884 22.5612 15.8852 23.7329 16.1743Z" fill="white" stroke="#653937" stroke-miterlimit="10" stroke-linecap="round" stroke-linejoin="round"/>
<path d="M22.2939 47.1552L14.8316 37.8413" stroke="#653937" stroke-miterlimit="10" stroke-linecap="round" stroke-linejoin="round"/>
<path d="M47.2049 32.9584C48.754 30.8644 48.7933 27.778 47.3071 25.6449C45.8131 23.5039 42.8958 22.4647 40.3795 23.1679C39.8527 20.7379 37.305 18.9173 34.8123 19.1908C32.3196 19.4643 30.2437 21.8005 30.2594 24.2853C27.8061 23.918 25.1955 24.3869 23.1589 25.7855C21.1223 27.192 19.7304 29.5595 19.7304 32.0208C19.7304 34.4821 21.2402 36.9434 23.5284 37.881C24.4327 38.2561 25.4392 38.3967 26.2727 38.9046C27.2163 39.475 27.8297 40.4283 28.5767 41.2331C30.7548 43.5694 34.4113 44.5851 37.3522 43.3115C40.1358 42.116 40.9536 39.6235 41.2288 36.8965C41.3939 35.2556 42.1331 35.6541 43.5642 35.3103C44.9953 34.9743 46.3242 34.1461 47.2049 32.9584Z" fill="#EEAB98" stroke="#653937" stroke-miterlimit="10" stroke-linecap="round" stroke-linejoin="round"/>
<path d="M46.5994 22.6129C45.4278 22.902 44.7201 24.0819 45.011 25.2461L47.2599 34.1224L46.1512 33.2473C46.1434 33.2395 46.1355 33.2317 46.1276 33.2239L33.9002 23.5428C32.9566 22.7926 31.5805 22.9489 30.8335 23.8866C30.0786 24.8242 30.2358 26.1916 31.1794 26.9339L38.3508 32.6144L38.3036 32.6769L26.9962 23.7225C26.0526 22.9724 24.6765 23.1286 23.9295 24.0663C23.1746 25.0039 23.3318 26.3713 24.2754 27.1136L35.5829 36.068L35.5357 36.1305L28.1442 30.2781C27.2006 29.528 25.8245 29.6843 25.0775 30.6219C24.3226 31.5595 24.4799 32.9269 25.4235 33.6692L32.815 39.5216L32.7678 39.5842L28.7025 36.3649C27.7589 35.6148 26.3828 35.7711 25.6358 36.7087C24.8809 37.6464 25.0382 39.0138 25.9818 39.7561L38.2093 49.4372C38.2171 49.445 38.2328 49.4528 38.2407 49.4528L43.0138 53.2346C44.4999 54.4066 46.5051 54.4926 48.0463 53.594L51.3174 56.1881L58.7876 46.8743L55.5164 44.2802C56.0512 42.5846 55.5243 40.6624 54.046 39.4826L52.9137 38.584L49.2651 24.1835C48.9584 23.027 47.7711 22.316 46.5994 22.6129Z" fill="white" stroke="#653937" stroke-miterlimit="10" stroke-linecap="round" stroke-linejoin="round"/>
<path d="M48.0384 53.5858L55.5086 44.2798" stroke="#653937" stroke-miterlimit="10" stroke-linecap="round" stroke-linejoin="round"/>
</svg>
