<svg width="69" height="69" viewBox="0 0 69 69" fill="none" xmlns="http://www.w3.org/2000/svg">
<path d="M34.6944 67.9502C53.3032 67.9502 68.3887 52.96 68.3887 34.4688C68.3887 15.9775 53.3032 0.987305 34.6944 0.987305C16.0855 0.987305 1 15.9775 1 34.4688C1 52.96 16.0855 67.9502 34.6944 67.9502Z" fill="white" stroke="#653937" stroke-miterlimit="10"/>
<path d="M39.0506 54.2134H23.7093C21.8299 54.2134 20.3045 52.6975 20.3045 50.83V31.0693C20.3045 29.2019 21.8299 27.686 23.7093 27.686H39.0506C40.93 27.686 42.4555 29.2019 42.4555 31.0693V50.83C42.4633 52.6975 40.93 54.2134 39.0506 54.2134Z" fill="white" stroke="#653937" stroke-miterlimit="10" stroke-linecap="round" stroke-linejoin="round"/>
<path d="M36.8725 23.8267H25.8874V27.7804H36.8725V23.8267Z" fill="white" stroke="#653937" stroke-miterlimit="10" stroke-linecap="round" stroke-linejoin="round"/>
<path d="M42.9351 14.7002H38.8619V18.1851H42.9351V14.7002Z" fill="white" stroke="#653937" stroke-miterlimit="10" stroke-linecap="round" stroke-linejoin="round"/>
<path d="M45.0189 15.0756L49.0921 12.3486" stroke="#653937" stroke-miterlimit="10" stroke-linecap="round" stroke-linejoin="round"/>
<path d="M45.0189 17.708L48.6911 20.013" stroke="#653937" stroke-miterlimit="10" stroke-linecap="round" stroke-linejoin="round"/>
<path d="M45.0189 16.2241H47.4801" stroke="#653937" stroke-miterlimit="10" stroke-linecap="round" stroke-linejoin="round"/>
<path d="M38.8619 14.7005L36.8725 12.9111H26.3671L24.3777 19.3105H37.3521L38.8619 18.1775V14.7005Z" fill="white" stroke="#653937" stroke-miterlimit="10" stroke-linecap="round" stroke-linejoin="round"/>
<path d="M37.3521 19.3102L41.0872 24.9048H42.5577L38.8619 18.1772L37.3521 19.3102Z" fill="white" stroke="#653937" stroke-miterlimit="10" stroke-linecap="round" stroke-linejoin="round"/>
<path d="M35.119 19.4038H27.6409V21.7557H35.119V19.4038Z" fill="white" stroke="#653937" stroke-miterlimit="10" stroke-linecap="round" stroke-linejoin="round"/>
<path d="M34.1911 21.7559H28.5688V23.8265H34.1911V21.7559Z" fill="white" stroke="#653937" stroke-miterlimit="10" stroke-linecap="round" stroke-linejoin="round"/>
<path d="M42.4397 36.2031H20.3281V47.0719H42.4397V36.2031Z" fill="#EEAB98" stroke="#653937" stroke-miterlimit="10" stroke-linecap="round" stroke-linejoin="round"/>
<path d="M34.7179 40.1414H32.8229V38.2505H29.9449V40.1414H28.042V43.0012H29.9449V44.8843H32.8229V43.0012H34.7179V40.1414Z" fill="white" stroke="#653937" stroke-miterlimit="10" stroke-linecap="round" stroke-linejoin="round"/>
</svg>
