<svg width="69" height="69" viewBox="0 0 69 69" fill="none" xmlns="http://www.w3.org/2000/svg">
<path d="M34.6944 68.2993C53.3032 68.2993 68.3887 53.3092 68.3887 34.8179C68.3887 16.3266 53.3032 1.33643 34.6944 1.33643C16.0855 1.33643 1 16.3266 1 34.8179C1 53.3092 16.0855 68.2993 34.6944 68.2993Z" fill="white" stroke="#653937" stroke-miterlimit="10"/>
<path d="M50.7434 25.8631C50.7434 28.8557 48.3058 31.2779 45.2941 31.2779C42.2825 31.2779 39.8448 28.8557 39.8448 25.8631C39.8448 22.8705 42.2825 20.4482 45.2941 20.4482C48.3058 20.4482 50.7434 22.8705 50.7434 25.8631Z" fill="white" stroke="#653937" stroke-miterlimit="10" stroke-linecap="round" stroke-linejoin="round"/>
<path d="M54.1246 46.6477H36.4636V38.3027C36.4636 34.5678 39.5146 31.5361 43.2732 31.5361H47.315C51.0737 31.5361 54.1246 34.5678 54.1246 38.3027V46.6477Z" fill="white" stroke="#653937" stroke-miterlimit="10" stroke-linecap="round" stroke-linejoin="round"/>
<path d="M29.5439 25.8631C29.5439 28.8557 27.1062 31.2779 24.0946 31.2779C21.0829 31.2779 18.6453 28.8557 18.6453 25.8631C18.6453 22.8705 21.0829 20.4482 24.0946 20.4482C27.1062 20.4482 29.5439 22.8705 29.5439 25.8631Z" fill="#EEAB98" stroke="#653937" stroke-miterlimit="10" stroke-linecap="round" stroke-linejoin="round"/>
<path d="M32.9251 46.6477H15.2641V38.3027C15.2641 34.5678 18.315 31.5361 22.0737 31.5361H26.1155C29.8741 31.5361 32.9251 34.5678 32.9251 38.3027V46.6477Z" fill="#EEAB98" stroke="#653937" stroke-miterlimit="10" stroke-linecap="round" stroke-linejoin="round"/>
<path d="M33.6092 26.4106H45.0032" stroke="#653937" stroke-linecap="round" stroke-linejoin="round"/>
<path d="M35.4335 28.6457L35.8109 28.2472L33.8215 26.411L35.8109 24.5748L35.4335 24.1763L33.0116 26.411L35.4335 28.6457Z" fill="#653937"/>
<path d="M43.1789 28.6457L42.8015 28.2472L44.7909 26.411L42.8015 24.5748L43.1789 24.1763L45.6008 26.411L43.1789 28.6457Z" fill="#653937"/>
<path d="M30.0157 37.9595V44.0072" stroke="#653937" stroke-miterlimit="10" stroke-linecap="round" stroke-linejoin="round"/>
<path d="M25.392 22.5039C27.2163 23.4806 28.1442 25.8481 27.4522 27.7937" stroke="#653937" stroke-miterlimit="10" stroke-linecap="round" stroke-linejoin="round"/>
</svg>
