<svg width="69" height="69" viewBox="0 0 69 69" fill="none" xmlns="http://www.w3.org/2000/svg">
<path d="M34.6944 68.2993C53.3032 68.2993 68.3887 53.3092 68.3887 34.8179C68.3887 16.3266 53.3032 1.33643 34.6944 1.33643C16.0855 1.33643 1 16.3266 1 34.8179C1 53.3092 16.0855 68.2993 34.6944 68.2993Z" fill="white" stroke="#653937" stroke-miterlimit="10"/>
<path d="M42.0465 28.9656C45.3992 28.9656 48.117 26.265 48.117 22.9335C48.117 19.602 45.3992 16.9014 42.0465 16.9014C38.6939 16.9014 35.9761 19.602 35.9761 22.9335C35.9761 26.265 38.6939 28.9656 42.0465 28.9656Z" fill="white" stroke="#653937" stroke-miterlimit="10" stroke-linecap="round" stroke-linejoin="round"/>
<path d="M51.8757 46.0776H32.2095V36.7794C32.2095 32.6147 35.6065 29.2393 39.7977 29.2393H44.2955C48.4866 29.2393 51.8836 32.6147 51.8836 36.7794V46.0776H51.8757Z" fill="white" stroke="#653937" stroke-miterlimit="10" stroke-linecap="round" stroke-linejoin="round"/>
<path d="M27.35 28.9656C30.7026 28.9656 33.4205 26.265 33.4205 22.9335C33.4205 19.602 30.7026 16.9014 27.35 16.9014C23.9974 16.9014 21.2795 19.602 21.2795 22.9335C21.2795 26.265 23.9974 28.9656 27.35 28.9656Z" fill="white" stroke="#653937" stroke-miterlimit="10" stroke-linecap="round" stroke-linejoin="round"/>
<path d="M37.187 46.0776H17.5208V36.7794C17.5208 32.6147 20.9178 29.2393 25.1089 29.2393H29.5989C33.7901 29.2393 37.187 32.6147 37.187 36.7794V46.0776Z" fill="white" stroke="#653937" stroke-miterlimit="10" stroke-linecap="round" stroke-linejoin="round"/>
<path d="M34.6943 32.5521C38.047 32.5521 40.7648 29.8514 40.7648 26.5199C40.7648 23.1885 38.047 20.4878 34.6943 20.4878C31.3417 20.4878 28.6239 23.1885 28.6239 26.5199C28.6239 29.8514 31.3417 32.5521 34.6943 32.5521Z" fill="#EEAB98" stroke="#653937" stroke-miterlimit="10" stroke-linecap="round" stroke-linejoin="round"/>
<path d="M44.5314 49.6641H24.8652V40.3658C24.8652 36.2012 28.2622 32.8257 32.4533 32.8257H36.9511C41.1423 32.8257 44.5392 36.2012 44.5392 40.3658V49.6641H44.5314Z" fill="#EEAB98" stroke="#653937" stroke-miterlimit="10" stroke-linecap="round" stroke-linejoin="round"/>
<path d="M41.0479 39.9053V46.6406" stroke="#653937" stroke-miterlimit="10" stroke-linecap="round" stroke-linejoin="round"/>
<path d="M35.8974 22.6919C37.934 23.778 38.9641 26.419 38.1935 28.5834" stroke="#653937" stroke-miterlimit="10" stroke-linecap="round" stroke-linejoin="round"/>
</svg>
