<svg width="69" height="69" viewBox="0 0 69 69" fill="none" xmlns="http://www.w3.org/2000/svg">
<path d="M68.39 34.2883C68.39 15.9037 53.3042 1.00001 34.695 1.00001C16.0858 1.00001 1 15.9037 1 34.2883C1 52.673 16.0858 67.5767 34.695 67.5767C53.3042 67.5767 68.39 52.673 68.39 34.2883Z" fill="white" stroke="#653937" stroke-miterlimit="10"/>
<path d="M50.0612 32.2274C50.0612 34.4357 49.0468 36.2294 47.7887 36.2294C47.6393 36.2294 47.4899 36.2068 47.3483 36.1541C46.5069 40.9249 43.8491 44.8968 40.2792 46.9544C38.5886 47.9342 36.6857 48.4768 34.6805 48.4768C32.6754 48.4768 30.7724 47.9341 29.074 46.9468C25.504 44.8893 22.8462 40.9249 22.0048 36.1541C21.8633 36.2068 21.7217 36.2294 21.5723 36.2294C20.3142 36.2294 19.292 34.4357 19.292 32.2274C19.292 30.0191 20.3063 28.2328 21.5723 28.2328C21.824 28.2328 22.3036 28.3459 22.3194 28.3007C23.8606 28.5871 25.2838 28.7227 26.6049 28.7529C27.0138 28.7604 27.4069 28.7604 27.7922 28.7453C35.2467 28.5418 38.9582 24.6528 39.5086 24.1855C40.0747 24.6076 43.2908 27.8258 47.0023 28.2178C47.0259 28.2931 47.5292 28.2404 47.7808 28.2404C49.0468 28.2328 50.0612 30.0191 50.0612 32.2274Z" fill="white" stroke="#653937" stroke-miterlimit="10" stroke-linecap="round" stroke-linejoin="round"/>
<path d="M40.2871 46.9465V55.6063H29.0818V46.939C30.7803 47.9263 32.6832 48.4689 34.6884 48.4689C36.6935 48.4765 38.5965 47.9263 40.2871 46.9465Z" fill="white" stroke="#653937" stroke-miterlimit="10" stroke-linecap="round" stroke-linejoin="round"/>
<path d="M47.3011 24.3512V28.2251C47.2461 28.2176 47.1911 28.2176 47.136 28.2025C43.2437 27.788 39.9018 24.2758 39.5794 24.1326C39.5715 24.1402 39.5479 24.1552 39.5243 24.1703C38.9739 24.6376 35.2545 28.5266 27.808 28.7301C27.4227 28.7527 27.0295 28.7527 26.6206 28.7376C25.331 28.7075 23.9471 28.5643 22.4609 28.2854C22.3351 28.2628 22.2093 28.2402 22.0835 28.2176V24.3361C22.0835 23.0096 22.3744 21.7058 22.972 20.5451C24.2616 18.0655 27.3126 14.5985 34.3896 14.4026C34.4918 14.395 34.594 14.395 34.7041 14.395C34.8142 14.395 34.9164 14.395 35.0186 14.4026C41.8597 14.591 44.95 17.8394 46.3025 20.3039C46.963 21.54 47.3011 22.9343 47.3011 24.3512Z" fill="white" stroke="#653937" stroke-miterlimit="10" stroke-linecap="round" stroke-linejoin="round"/>
<path d="M25.7006 26.8757C29.4907 27.0339 33.3123 25.2251 35.4904 22.248L25.7006 26.8757Z" fill="white"/>
<path d="M25.7006 26.8757C29.4907 27.0339 33.3123 25.2251 35.4904 22.248" stroke="#653937" stroke-miterlimit="10" stroke-linecap="round" stroke-linejoin="round"/>
<path d="M44.895 39.9604C44.895 41.7165 25.2524 41.7165 25.2524 39.9604V31.4136C25.1659 32.1597 44.8085 32.1597 44.895 31.4136V39.9604Z" fill="#EEAB98" stroke="#653937" stroke-miterlimit="10" stroke-linecap="round" stroke-linejoin="round"/>
<path d="M22.0992 28.0894C22.5474 29.8153 23.5932 30.6368 25.2602 31.4206L22.0992 28.0894Z" fill="white"/>
<path d="M22.0992 28.0894C22.5474 29.8153 23.5932 30.6368 25.2602 31.4206" stroke="#653937" stroke-miterlimit="10" stroke-linecap="round" stroke-linejoin="round"/>
<path d="M47.4348 28.0742C46.9709 29.7173 46.5148 30.584 44.9421 31.4432L47.4348 28.0742Z" fill="white"/>
<path d="M47.4348 28.0742C46.9709 29.7173 46.5148 30.584 44.9421 31.4432" stroke="#653937" stroke-miterlimit="10" stroke-linecap="round" stroke-linejoin="round"/>
<path d="M22.2093 36.1465C22.9012 38.3849 23.3888 38.9502 25.3389 40.2089L22.2093 36.1465Z" fill="white"/>
<path d="M22.2093 36.1465C22.9012 38.3849 23.3888 38.9502 25.3389 40.2089" stroke="#653937" stroke-miterlimit="10" stroke-linecap="round" stroke-linejoin="round"/>
<path d="M47.4663 36.0483C46.8765 38.3546 46.5148 38.6938 44.6591 40.2539L47.4663 36.0483Z" fill="white"/>
<path d="M47.4663 36.0483C46.8765 38.3546 46.5148 38.6938 44.6591 40.2539" stroke="#653937" stroke-miterlimit="10" stroke-linecap="round" stroke-linejoin="round"/>
</svg>
