<svg width="17" height="17" viewBox="0 0 17 17" fill="none" xmlns="http://www.w3.org/2000/svg">
<path fill-rule="evenodd" clip-rule="evenodd" d="M0.0274221 4.78542C0.0274221 3.91154 0.67694 3.23488 1.65512 3.23488C2.6333 3.23488 4.6402 3.21145 4.6402 3.21145C4.6402 3.21145 4.60958 2.48357 4.60958 1.55783C4.60958 0.632294 5.40561 0 6.35997 0C7.31453 0 12.0431 0.0417573 12.5071 0.0417573C12.971 0.0417573 13.3474 0.220761 13.8676 0.63219C14.3876 1.04383 15.1738 1.73183 15.5631 2.19022C15.9524 2.64862 16.1168 2.91624 16.1168 3.29445C16.1168 3.67276 16.1168 11.2977 16.1108 12.1811C16.1048 13.0647 15.3224 13.7178 14.396 13.7307C13.4695 13.7436 11.4802 13.7436 11.4802 13.7436C11.4802 13.7436 11.5268 14.3971 11.5268 15.3213C11.5268 16.2454 10.7155 16.9677 9.79371 16.9932C8.87198 17.0187 2.59357 16.9422 1.69886 16.9677C0.804142 16.9932 0 16.2602 0 15.3618C0 14.4633 0.0274221 5.6592 0.0274221 4.78542ZM1.70216 5.19633L1.58687 14.8654C1.58618 14.92 1.59591 14.9741 1.61551 15.0248C1.6351 15.0754 1.66417 15.1215 1.70102 15.1604C1.73787 15.1992 1.78177 15.2301 1.83017 15.2512C1.87857 15.2723 1.93051 15.2831 1.98298 15.2831L9.38018 15.3061C9.43232 15.3067 9.48405 15.2964 9.53226 15.2757C9.58047 15.255 9.62416 15.2244 9.66072 15.1857C9.69727 15.147 9.72592 15.1011 9.74496 15.0506C9.764 15 9.77302 14.946 9.77149 14.8918L9.74968 13.9659C9.74922 13.9385 9.74355 13.9114 9.73299 13.8864C9.72242 13.8613 9.70717 13.8386 9.68812 13.8197C9.66908 13.8008 9.64661 13.786 9.62203 13.7761C9.59744 13.7663 9.57123 13.7617 9.54491 13.7625C9.54491 13.7625 7.35657 13.8291 6.36568 13.793C5.37469 13.7568 4.69715 13.0842 4.69685 12.1773C4.69655 11.2704 4.69715 4.97734 4.69715 4.97734C4.6972 4.94994 4.69203 4.92281 4.68194 4.89751C4.67185 4.87221 4.65703 4.84925 4.63835 4.82994C4.61967 4.81064 4.5975 4.79539 4.57311 4.78506C4.54872 4.77474 4.52261 4.76955 4.49629 4.7698L2.10728 4.77834C2.00065 4.77912 1.89855 4.82329 1.82284 4.90141C1.74712 4.97953 1.7038 5.08539 1.70216 5.19633ZM12.3615 1.52482C12.1947 1.37382 12.0596 1.43734 12.0596 1.66769V3.4645C12.0596 3.57967 12.1491 3.67349 12.2595 3.67412L14.3479 3.68463C14.5685 3.68578 14.6123 3.56426 14.4456 3.41326L12.3615 1.52482ZM6.59626 1.61302C6.56992 1.61277 6.54378 1.61793 6.51936 1.62821C6.49493 1.63848 6.47269 1.65367 6.45392 1.6729C6.43514 1.69212 6.42019 1.71502 6.40993 1.74027C6.39966 1.76551 6.39428 1.79262 6.3941 1.82003L6.33145 11.8471C6.33107 11.888 6.3385 11.9286 6.35332 11.9665C6.36813 12.0044 6.39004 12.0389 6.41777 12.0679C6.4455 12.097 6.47849 12.12 6.51483 12.1357C6.55118 12.1513 6.59015 12.1593 6.62949 12.1592L14.1555 12.1398C14.2091 12.1395 14.2605 12.1175 14.2987 12.0783C14.337 12.0392 14.359 11.9861 14.3601 11.9303L14.487 5.43021C14.4877 5.40299 14.4831 5.3759 14.4736 5.35055C14.464 5.3252 14.4497 5.3021 14.4314 5.28263C14.4131 5.26317 14.3912 5.24773 14.367 5.23723C14.3429 5.22673 14.317 5.22139 14.2908 5.22153C14.2908 5.22153 11.6715 5.2259 11.21 5.2259C10.7486 5.2259 10.4559 4.99452 10.4559 4.55091C10.4559 4.10731 10.4471 1.84711 10.4471 1.84711C10.4467 1.79155 10.4254 1.73839 10.3877 1.69908C10.3499 1.65976 10.2989 1.63746 10.2455 1.63697L6.59616 1.61302H6.59626Z" fill="white"/>
</svg>
