<svg width="28" height="28" viewBox="0 0 28 28" fill="none" xmlns="http://www.w3.org/2000/svg">
<g filter="url(#filter0_d_581_235037)">
<path fill-rule="evenodd" clip-rule="evenodd" d="M10.0422 0.0599326C11.0659 0.0108968 11.3923 0 14 0C16.6077 0 16.9341 0.0118049 17.9569 0.0599326C18.9798 0.10806 19.678 0.277869 20.2889 0.523956C20.9286 0.775492 21.5089 1.16869 21.9889 1.6772C22.4777 2.17574 22.8547 2.77869 23.0956 3.44522C23.3329 4.08087 23.4953 4.80732 23.5424 5.86976C23.5895 6.93675 23.6 7.27636 23.6 9.98877C23.6 12.7021 23.5887 13.0417 23.5424 14.1069C23.4961 15.1693 23.3329 15.8958 23.0956 16.5314C22.8547 17.198 22.477 17.802 21.9889 18.3012C21.5089 18.8098 20.9286 19.202 20.2889 19.4527C19.678 19.6997 18.9798 19.8686 17.9587 19.9176C16.9341 19.9666 16.6077 19.9775 14 19.9775C11.3923 19.9775 11.0659 19.9657 10.0422 19.9176C9.02109 19.8695 8.32291 19.6997 7.712 19.4527C7.07135 19.202 6.4909 18.8091 6.01106 18.3012C5.52266 17.8024 5.14471 17.1987 4.90357 16.5323C4.66706 15.8967 4.50473 15.1702 4.4576 14.1078C4.41047 13.0408 4.4 12.7012 4.4 9.98877C4.4 7.27545 4.41135 6.93584 4.4576 5.87158C4.50386 4.80732 4.66706 4.08087 4.90357 3.44522C5.14507 2.77877 5.5233 2.17511 6.01193 1.6763C6.49109 1.16823 7.07096 0.774986 7.71113 0.523956C8.32204 0.277869 9.02022 0.108968 10.0413 0.0599326H10.0422ZM17.8793 1.85791C16.8669 1.80978 16.5632 1.79979 14 1.79979C11.4368 1.79979 11.1331 1.80978 10.1207 1.85791C9.18429 1.90241 8.67636 2.06495 8.33775 2.20207C7.89004 2.38368 7.56975 2.5989 7.23375 2.9485C6.91524 3.27091 6.67012 3.66341 6.51636 4.09721C6.38458 4.44954 6.22836 4.97804 6.1856 5.9524C6.13935 7.00576 6.12975 7.32177 6.12975 9.98877C6.12975 12.6558 6.13935 12.9718 6.1856 14.0251C6.22836 14.9995 6.38458 15.528 6.51636 15.8803C6.66996 16.3135 6.9152 16.7067 7.23375 17.029C7.54357 17.3605 7.92146 17.6156 8.33775 17.7755C8.67636 17.9126 9.18429 18.0751 10.1207 18.1196C11.1331 18.1678 11.4359 18.1777 14 18.1777C16.5641 18.1777 16.8669 18.1678 17.8793 18.1196C18.8157 18.0751 19.3236 17.9126 19.6623 17.7755C20.11 17.5939 20.4303 17.3786 20.7663 17.029C21.0848 16.7067 21.33 16.3135 21.4836 15.8803C21.6154 15.528 21.7716 14.9995 21.8144 14.0251C21.8607 12.9718 21.8703 12.6558 21.8703 9.98877C21.8703 7.32177 21.8607 7.00576 21.8144 5.9524C21.7716 4.97804 21.6154 4.44954 21.4836 4.09721C21.3091 3.63137 21.1023 3.29811 20.7663 2.9485C20.4564 2.61712 20.0792 2.36208 19.6623 2.20207C19.3236 2.06495 18.8157 1.90241 17.8793 1.85791ZM12.7738 13.068C13.4586 13.3646 14.2211 13.4047 14.9311 13.1813C15.6411 12.9579 16.2546 12.485 16.6667 11.8433C17.0788 11.2016 17.264 10.4309 17.1907 9.66287C17.1174 8.89485 16.7901 8.17714 16.2647 7.63233C15.9298 7.28406 15.5248 7.01739 15.079 6.85152C14.6331 6.68565 14.1575 6.6247 13.6863 6.67306C13.215 6.72142 12.76 6.87788 12.3539 7.13119C11.9477 7.3845 11.6006 7.72835 11.3376 8.13799C11.0745 8.54762 10.902 9.01286 10.8325 9.50019C10.7629 9.98753 10.7981 10.4848 10.9355 10.9563C11.0728 11.4278 11.3089 11.8618 11.6268 12.2269C11.9447 12.5921 12.3364 12.8793 12.7738 13.068ZM10.5108 6.3583C10.969 5.88155 11.513 5.50336 12.1117 5.24534C12.7104 4.98732 13.352 4.85452 14 4.85452C14.648 4.85452 15.2896 4.98732 15.8883 5.24534C16.487 5.50336 17.031 5.88155 17.4892 6.3583C17.9474 6.83506 18.3108 7.40106 18.5588 8.02398C18.8068 8.64689 18.9344 9.31453 18.9344 9.98877C18.9344 10.663 18.8068 11.3306 18.5588 11.9536C18.3108 12.5765 17.9474 13.1425 17.4892 13.6192C16.5638 14.5821 15.3087 15.123 14 15.123C12.6913 15.123 11.4362 14.5821 10.5108 13.6192C9.58545 12.6564 9.06558 11.3505 9.06558 9.98877C9.06558 8.62708 9.58545 7.32116 10.5108 6.3583ZM20.0288 5.61914C20.1423 5.50769 20.2332 5.37367 20.2961 5.22501C20.359 5.07635 20.3926 4.91608 20.3948 4.75368C20.3971 4.59128 20.368 4.43006 20.3094 4.27956C20.2507 4.12906 20.1636 3.99234 20.0532 3.87749C19.9428 3.76265 19.8114 3.67201 19.6668 3.61096C19.5221 3.5499 19.3672 3.51966 19.2111 3.52202C19.055 3.52439 18.901 3.55932 18.7581 3.62474C18.6153 3.69016 18.4865 3.78474 18.3793 3.90288C18.171 4.13265 18.057 4.43785 18.0614 4.75368C18.0658 5.06952 18.1884 5.37112 18.403 5.59448C18.6177 5.81783 18.9076 5.94534 19.2111 5.94994C19.5147 5.95455 19.808 5.83588 20.0288 5.61914Z" fill="white"/>
</g>
<defs>
<filter id="filter0_d_581_235037" x="0.400002" y="0" width="27.2" height="27.9775" filterUnits="userSpaceOnUse" color-interpolation-filters="sRGB">
<feFlood flood-opacity="0" result="BackgroundImageFix"/>
<feColorMatrix in="SourceAlpha" type="matrix" values="0 0 0 0 0 0 0 0 0 0 0 0 0 0 0 0 0 0 127 0" result="hardAlpha"/>
<feOffset dy="4"/>
<feGaussianBlur stdDeviation="2"/>
<feComposite in2="hardAlpha" operator="out"/>
<feColorMatrix type="matrix" values="0 0 0 0 0 0 0 0 0 0 0 0 0 0 0 0 0 0 0.25 0"/>
<feBlend mode="normal" in2="BackgroundImageFix" result="effect1_dropShadow_581_235037"/>
<feBlend mode="normal" in="SourceGraphic" in2="effect1_dropShadow_581_235037" result="shape"/>
</filter>
</defs>
</svg>
