<svg width="17" height="21" viewBox="0 0 17 21" fill="none" xmlns="http://www.w3.org/2000/svg">
<path d="M8.5 0.4375C6.40389 0.439973 4.39434 1.27374 2.91217 2.75592C1.43 4.23809 0.596224 6.24764 0.593751 8.34375C0.59124 10.0567 1.15077 11.7232 2.1865 13.0875C2.1865 13.0875 2.40213 13.3714 2.43734 13.4124L8.5 20.5625L14.5655 13.4088C14.5972 13.3707 14.8135 13.0875 14.8135 13.0875L14.8142 13.0853C15.8494 11.7216 16.4087 10.0559 16.4063 8.34375C16.4038 6.24764 15.57 4.23809 14.0878 2.75592C12.6057 1.27374 10.5961 0.439973 8.5 0.4375ZM8.5 11.2188C7.93138 11.2188 7.37553 11.0501 6.90274 10.7342C6.42994 10.4183 6.06145 9.9693 5.84385 9.44396C5.62625 8.91863 5.56931 8.34056 5.68024 7.78287C5.79118 7.22517 6.06499 6.71289 6.46707 6.31082C6.86914 5.90874 7.38142 5.63492 7.93912 5.52399C8.49681 5.41306 9.07488 5.46999 9.60021 5.6876C10.1256 5.9052 10.5746 6.27369 10.8905 6.74649C11.2064 7.21928 11.375 7.77513 11.375 8.34375C11.374 9.10596 11.0708 9.83667 10.5319 10.3756C9.99292 10.9146 9.26221 11.2178 8.5 11.2188Z" fill="white"/>
</svg>
