<svg width="24" height="18" viewBox="0 0 24 18" fill="none" xmlns="http://www.w3.org/2000/svg">
<path d="M22.5929 0.00218193C20.3095 0.127137 15.7711 0.581956 12.9694 2.2357C12.7761 2.3498 12.6665 2.55271 12.6665 2.76485V17.3846C12.6665 17.8486 13.1927 18.1419 13.6365 17.9266C16.519 16.5275 20.6879 16.1459 22.7491 16.0414C23.4529 16.0056 24 15.4616 24 14.8095V1.23566C24.0004 0.524099 23.3604 -0.0396036 22.5929 0.00218193ZM11.0306 2.2357C8.22931 0.581956 3.6909 0.127538 1.40752 0.00218193C0.640011 -0.0396036 0 0.524099 0 1.23566V14.8099C0 15.4624 0.547093 16.0064 1.25086 16.0418C3.31297 16.1463 7.48388 16.5284 10.3664 17.9282C10.8089 18.1431 11.3335 17.8502 11.3335 17.3874V2.75761C11.3335 2.54507 11.2244 2.35021 11.0306 2.2357Z" fill="white"/>
</svg>
