<svg width="51" height="37" viewBox="0 0 51 37" fill="none" xmlns="http://www.w3.org/2000/svg">
<path d="M50.5689 18.6087C50.3515 18.2162 50.06 17.8731 49.712 17.5997C49.3639 17.3264 48.9664 17.1285 48.543 17.0178C46.6782 16.5309 44.7433 16.4015 42.8336 16.636C43.3277 13.7415 43.1452 10.7664 42.3016 7.96005C42.0554 7.16178 41.5313 6.48712 40.8314 6.06753C40.1316 5.64793 39.3061 5.51346 38.5158 5.69031C36.6143 6.12687 34.8003 6.902 33.1543 7.98126C31.8422 5.11622 29.8924 2.61521 27.4654 0.684151C26.9 0.240241 26.2102 0 25.5009 0C24.7917 0 24.1018 0.240241 23.5364 0.684151C21.1094 2.61521 19.1596 5.11622 17.8475 7.98126C16.2016 6.902 14.3875 6.12687 12.486 5.69031C11.6958 5.51346 10.8703 5.64793 10.1704 6.06753C9.47056 6.48712 8.94647 7.16178 8.70026 7.96005C7.85661 10.7664 7.67416 13.7415 8.16821 16.636C6.25854 16.4015 4.32362 16.5309 2.45885 17.0178C2.03591 17.1282 1.6387 17.3257 1.29085 17.5985C0.943001 17.8712 0.6516 18.2137 0.433973 18.6055C0.216346 18.9973 0.0769356 19.4305 0.0240278 19.8793C-0.02888 20.328 0.0057953 20.7833 0.125993 21.2179C0.84222 23.8907 3.05229 29.0029 9.76437 33.012C16.4764 37.0212 22.3291 37 25.4805 37H25.5214C28.6728 37 34.5663 37 41.2375 33.012C47.9086 29.0241 50.1596 23.8907 50.8758 21.2179C50.9946 20.7837 51.0286 20.3293 50.9759 19.8813C50.9232 19.4332 50.7848 19.0006 50.5689 18.6087ZM39.1911 9.02067C39.7641 10.8025 40.2961 14.0056 39.1297 18.1208L39.0683 18.3542C38.5945 19.9479 37.942 21.4786 37.1243 22.9149C36.1318 24.6907 34.9363 26.336 33.5636 27.815C34.6072 25.2695 35.3235 22.1512 35.3235 18.333C35.3404 15.9212 35.0164 13.5199 34.3617 11.2056C35.819 10.1585 37.4595 9.41637 39.1911 9.02067ZM25.5009 3.39935C27.4654 4.92666 32.0493 9.42371 32.0493 18.333C32.0493 27.2422 27.404 31.8241 25.5009 33.2666C23.5978 31.8241 18.9526 27.3483 18.9526 18.333C18.9526 9.31765 23.5364 4.92666 25.5009 3.39935ZM11.8107 9.02067C13.5423 9.41637 15.1828 10.1585 16.6402 11.2056C15.9855 13.5199 15.6614 15.9212 15.6784 18.333C15.6784 22.1512 16.3946 25.2695 17.4382 27.815C16.0656 26.336 14.8701 24.6907 13.8776 22.9149C13.0558 21.4733 12.4032 19.9351 11.9335 18.333L11.8721 18.1421C10.6852 14.0056 11.2378 10.8025 11.8107 9.02067ZM3.25693 20.3057C4.52568 19.9663 6.51065 19.7118 9.06861 20.1785C9.58806 21.7203 10.2529 23.2053 11.0536 24.6119C12.8083 27.7547 15.1122 30.5313 17.8475 32.7999C15.5872 32.2008 13.4179 31.2799 11.4015 30.0635C5.71257 26.6483 3.87084 22.4694 3.25693 20.3057ZM39.6004 30.0635C37.584 31.2799 35.4146 32.2008 33.1543 32.7999C35.8896 30.5313 38.1935 27.7547 39.9483 24.6119C40.7489 23.2053 41.4138 21.7203 41.9332 20.1785C43.8499 19.7974 45.822 19.8335 47.7244 20.2845C47.131 22.4694 45.2893 26.6483 39.6004 30.0635Z" fill="#DF8B61"/>
</svg>
